<svg xmlns="http://www.w3.org/2000/svg" viewBox="0 0 576 512"><!--!Font Awesome Free 6.5.2 by @fontawesome - https://fontawesome.com License - https://fontawesome.com/license/free Copyright 2024 Fonticons, Inc.--><path fill="#1976d2" d="M320 0c-17.7 0-32 14.3-32 32s14.3 32 32 32h82.7L201.4 265.4c-12.5 12.5-12.5 32.8 0 45.3s32.8 12.5 45.3 0L448 109.3V192c0 17.7 14.3 32 32 32s32-14.3 32-32V32c0-17.7-14.3-32-32-32H320zM80 64C35.8 64 0 99.8 0 144V448c0 35.3 28.7 64 64 64H368c35.3 0 64-28.7 64-64V336c0-17.7-14.3-32-32-32s-32 14.3-32 32v96c0 0 0 0 0 0c0 0 0 0 0 0H96c0 0 0 0 0 0c0 0 0 0 0 0V160c0-8.8 7.2-16 16-16H288c17.7 0 32-14.3 32-32s-14.3-32-32-32H112c-17.7 0-32 14.3-32 32z"/></svg>